<svg id="Layer_1" data-name="Layer 1" xmlns="http://www.w3.org/2000/svg" viewBox="0 0 512 512"><defs><style>.cls-1{fill:#dde5e8;}.cls-2{fill:#afc3c9;}.cls-3{fill:#9bbdc6;}</style></defs><title>notepad-1-flat</title><path class="cls-1" d="M396.8,38.4H339.15a31.79,31.79,0,0,1,6.45,19.2V96a32.09,32.09,0,0,1-32,32H198.4a32.09,32.09,0,0,1-32-32V57.6a31.79,31.79,0,0,1,6.45-19.2H115.2a64.19,64.19,0,0,0-64,64V448a64.19,64.19,0,0,0,64,64H396.8a64.19,64.19,0,0,0,64-64V102.4A64.19,64.19,0,0,0,396.8,38.4Z"/><path class="cls-2" d="M345.6,217.6h-128a12.8,12.8,0,1,1,0-25.6h128a12.8,12.8,0,0,1,0,25.6Z"/><circle class="cls-2" cx="166.4" cy="204.8" r="12.8"/><path class="cls-2" d="M345.6,268.8h-128a12.8,12.8,0,1,1,0-25.6h128a12.8,12.8,0,0,1,0,25.6Z"/><circle class="cls-2" cx="166.4" cy="256" r="12.8"/><path class="cls-2" d="M345.6,320h-128a12.8,12.8,0,1,1,0-25.6h128a12.8,12.8,0,0,1,0,25.6Z"/><circle class="cls-2" cx="166.4" cy="307.2" r="12.8"/><path class="cls-2" d="M345.6,371.2h-128a12.8,12.8,0,0,1,0-25.6h128a12.8,12.8,0,0,1,0,25.6Z"/><circle class="cls-2" cx="166.4" cy="358.4" r="12.8"/><path class="cls-2" d="M345.6,422.4h-128a12.8,12.8,0,0,1,0-25.6h128a12.8,12.8,0,0,1,0,25.6Z"/><circle class="cls-2" cx="166.4" cy="409.6" r="12.8"/><path class="cls-3" d="M313.6,25.6H292.17a38.35,38.35,0,0,0-72.34,0H198.4a32.09,32.09,0,0,0-32,32V96a32.09,32.09,0,0,0,32,32H313.6a32.09,32.09,0,0,0,32-32V57.6A32.09,32.09,0,0,0,313.6,25.6ZM256,51.2a12.8,12.8,0,1,1,12.8-12.8A12.81,12.81,0,0,1,256,51.2Z"/></svg>